<svg width="500" height="500" viewBox="0 0 500 500" fill="none" xmlns="http://www.w3.org/2000/svg">
<path d="M158.8 453.87C261.2 487.87 377.94 414.99 437.71 337.87C477.42 286.63 499.25 223.04 487.99 167.26C479.73 126.38 450.6 83.84 399.7 75.07C343 65.31 289.35 114.71 231 105.44C172.65 96.17 100.19 110.56 60.63 149.39C21.07 188.22 3.20002 266.57 23.13 332.06C34.5 369.41 59.13 403.45 93.94 426.88C113.1 439.76 134.94 445.69 157.55 453.45L158.8 453.87Z" fill="#005D69"/>
<path opacity="0.8" d="M158.8 453.87C261.2 487.87 377.94 414.99 437.71 337.87C477.42 286.63 499.25 223.04 487.99 167.26C479.73 126.38 450.6 83.84 399.7 75.07C343 65.31 289.35 114.71 231 105.44C172.65 96.17 100.19 110.56 60.63 149.39C21.07 188.22 3.20002 266.57 23.13 332.06C34.5 369.41 59.13 403.45 93.94 426.88C113.1 439.76 134.94 445.69 157.55 453.45L158.8 453.87Z" fill="white"/>
<path d="M87.9 118.29C87.9 104.66 77.96 91.29 65.69 91.29C53.42 91.29 43.48 104.63 43.48 118.29C43.48 128.14 48.66 135.45 56.16 138.75C56.16 138.75 62.45 141.38 61.85 149.62C61.41 155.71 60.69 161.85 60.35 164.62C60.3258 164.814 60.3432 165.01 60.4011 165.197C60.459 165.383 60.5561 165.555 60.6858 165.701C60.8155 165.846 60.9749 165.963 61.1532 166.042C61.3316 166.121 61.5248 166.162 61.72 166.16H69.29C69.4851 166.162 69.6784 166.121 69.8567 166.042C70.0351 165.963 70.1944 165.846 70.3242 165.701C70.4539 165.555 70.5509 165.383 70.6089 165.197C70.6668 165.01 70.6842 164.814 70.66 164.62C70.31 161.83 69.6 155.69 69.16 149.62C68.72 143.55 72.16 140.43 73.87 139.3C82.08 136.31 87.9 128.72 87.9 118.29Z" stroke="#263238" stroke-miterlimit="10"/>
<path d="M53.72 137.48C54.5057 137.955 55.3206 138.379 56.16 138.75C56.16 138.75 62.45 141.38 61.85 149.62C61.41 155.71 60.69 161.85 60.35 164.62C60.3258 164.814 60.3432 165.01 60.4012 165.197C60.4591 165.383 60.5561 165.555 60.6859 165.701C60.8156 165.847 60.9749 165.963 61.1533 166.042C61.3317 166.121 61.5249 166.162 61.72 166.16H69.29C69.4852 166.162 69.6784 166.121 69.8568 166.042C70.0351 165.963 70.1945 165.847 70.3242 165.701C70.4539 165.555 70.551 165.383 70.6089 165.197C70.6668 165.01 70.6843 164.814 70.66 164.62C70.31 161.83 69.6 155.69 69.16 149.62C68.72 143.55 72.16 140.43 73.87 139.3C75.1949 138.816 76.4707 138.206 77.68 137.48H53.72Z" stroke="#263238" stroke-miterlimit="10"/>
<path d="M48 158.54C50.6731 158.54 52.84 156.373 52.84 153.7C52.84 151.027 50.6731 148.86 48 148.86C45.327 148.86 43.16 151.027 43.16 153.7C43.16 156.373 45.327 158.54 48 158.54Z" stroke="#263238" stroke-miterlimit="10"/>
<path d="M225.07 49.3801C219.45 61.8101 223.07 78.0601 234.19 83.1101C245.31 88.1601 259.93 80.1101 265.55 67.7001C269.61 58.7001 267.89 49.9301 262.42 43.8301C262.42 43.8301 257.78 38.8301 261.72 31.5801C264.63 26.2101 267.82 20.9101 269.28 18.5101C269.388 18.3427 269.458 18.154 269.485 17.9568C269.513 17.7597 269.497 17.559 269.439 17.3687C269.381 17.1783 269.282 17.0029 269.149 16.8546C269.016 16.7064 268.853 16.5888 268.67 16.5101L265.53 15.0901L264.91 14.8101L261.77 13.3901C261.593 13.3088 261.4 13.2662 261.206 13.2653C261.011 13.2643 260.818 13.3049 260.64 13.3844C260.462 13.4639 260.303 13.5805 260.174 13.7263C260.044 13.8721 259.948 14.0439 259.89 14.2301C259.05 16.9101 257.18 22.8001 255.07 28.5301C252.96 34.2601 248.57 35.6901 246.52 36.0001C237.8 35.3701 229.37 39.8801 225.07 49.3801Z" stroke="#263238" stroke-miterlimit="10"/>
<path d="M264.13 46.0001C263.606 45.2416 263.035 44.5169 262.42 43.8301C262.42 43.8301 257.78 38.8301 261.72 31.5801C264.63 26.2101 267.82 20.9101 269.28 18.5101C269.388 18.3427 269.458 18.154 269.485 17.9568C269.513 17.7597 269.497 17.559 269.439 17.3687C269.381 17.1783 269.282 17.0029 269.149 16.8546C269.016 16.7064 268.853 16.5888 268.67 16.5101L265.53 15.0901L264.91 14.8101L261.77 13.3901C261.593 13.3088 261.4 13.2662 261.206 13.2653C261.011 13.2643 260.818 13.3049 260.64 13.3844C260.462 13.4639 260.303 13.5805 260.174 13.7263C260.044 13.8721 259.948 14.0439 259.89 14.2301C259.05 16.9101 257.18 22.8001 255.07 28.5301C252.96 34.2601 248.57 35.6901 246.52 36.0001C245.114 35.8897 243.7 35.9199 242.3 36.0901L264.13 46.0001Z" stroke="#263238" stroke-miterlimit="10"/>
<path d="M305.13 427.62C293.51 420.48 276.94 421.97 270.52 432.42C264.1 442.87 270.25 458.33 281.87 465.42C290.26 470.58 299.2 469.99 305.94 465.33C305.94 465.33 311.48 461.33 318.18 466.17C323.18 469.73 328 473.56 330.18 475.31C330.332 475.426 330.507 475.508 330.692 475.553C330.878 475.597 331.071 475.603 331.259 475.569C331.447 475.535 331.626 475.463 331.785 475.356C331.943 475.25 332.078 475.111 332.18 474.95L333.98 472.02L334.34 471.44L336.14 468.51C336.245 468.342 336.312 468.154 336.339 467.959C336.365 467.763 336.349 467.564 336.292 467.374C336.236 467.185 336.139 467.01 336.009 466.861C335.88 466.712 335.72 466.592 335.54 466.51C332.98 465.34 327.38 462.74 321.96 459.93C316.54 457.12 315.68 452.59 315.63 450.51C317.43 442 314 433.08 305.13 427.62Z" stroke="#263238" stroke-miterlimit="10"/>
<path d="M303.57 466.79C304.389 466.367 305.181 465.893 305.94 465.37C305.94 465.37 311.48 461.37 318.18 466.21C323.18 469.77 328 473.6 330.18 475.35C330.332 475.466 330.507 475.548 330.692 475.593C330.878 475.638 331.071 475.643 331.259 475.609C331.447 475.575 331.626 475.503 331.784 475.396C331.943 475.29 332.078 475.151 332.18 474.99L333.98 472.06L334.34 471.48L336.14 468.55C336.245 468.382 336.312 468.194 336.339 467.999C336.365 467.803 336.349 467.604 336.292 467.414C336.236 467.225 336.139 467.05 336.009 466.901C335.88 466.752 335.72 466.632 335.54 466.55C332.98 465.38 327.38 462.78 321.96 459.97C316.54 457.16 315.68 452.63 315.63 450.55C315.91 449.167 316.057 447.761 316.07 446.35L303.57 466.79Z" stroke="#263238" stroke-miterlimit="10"/>
<path d="M455 378.91C467 372.46 474.05 357.38 468.25 346.58C462.45 335.78 445.98 333.32 433.97 339.78C425.3 344.44 421.32 352.47 421.97 360.63C421.97 360.63 422.63 367.41 415.09 370.78C409.52 373.28 403.77 375.55 401.15 376.57C400.968 376.641 400.804 376.751 400.667 376.89C400.531 377.03 400.426 377.197 400.358 377.38C400.291 377.564 400.264 377.759 400.278 377.954C400.292 378.149 400.347 378.338 400.44 378.51L402.07 381.51L402.39 382.11L404.02 385.11C404.113 385.28 404.241 385.429 404.395 385.546C404.549 385.663 404.726 385.747 404.915 385.791C405.104 385.836 405.3 385.84 405.49 385.803C405.68 385.767 405.861 385.691 406.02 385.58C408.31 383.96 413.38 380.42 418.54 377.15C423.7 373.88 428.04 375.41 429.86 376.41C436.33 382.31 445.76 383.85 455 378.91Z" stroke="#263238" stroke-miterlimit="10"/>
<path d="M421.87 357.88C421.815 358.796 421.815 359.714 421.87 360.63C421.87 360.63 422.53 367.41 414.99 370.78C409.42 373.28 403.67 375.55 401.05 376.57C400.868 376.641 400.704 376.751 400.567 376.89C400.431 377.03 400.326 377.197 400.258 377.38C400.191 377.564 400.164 377.759 400.178 377.954C400.192 378.149 400.247 378.338 400.34 378.51L401.97 381.51L402.29 382.11L403.92 385.11C404.013 385.28 404.141 385.429 404.295 385.546C404.449 385.664 404.626 385.747 404.815 385.791C405.004 385.836 405.2 385.84 405.39 385.803C405.58 385.767 405.761 385.691 405.92 385.58C408.21 383.96 413.28 380.42 418.44 377.15C423.6 373.88 427.94 375.41 429.76 376.41C430.814 377.348 431.956 378.181 433.17 378.9L421.87 357.88Z" stroke="#263238" stroke-miterlimit="10"/>
<path d="M397.17 421.32C397.168 420.363 396.882 419.428 396.349 418.634C395.816 417.839 395.06 417.22 394.175 416.856C393.291 416.491 392.318 416.396 391.38 416.584C390.441 416.772 389.58 417.234 388.904 417.911C388.228 418.588 387.768 419.451 387.582 420.389C387.396 421.328 387.493 422.301 387.859 423.184C388.226 424.068 388.846 424.824 389.642 425.355C390.438 425.886 391.373 426.17 392.33 426.17C392.966 426.17 393.597 426.044 394.184 425.801C394.772 425.557 395.306 425.199 395.756 424.749C396.206 424.298 396.562 423.764 396.804 423.175C397.047 422.587 397.171 421.956 397.17 421.32Z" stroke="#263238" stroke-miterlimit="10"/>
<path d="M470.68 185.78C473.353 185.78 475.52 183.613 475.52 180.94C475.52 178.267 473.353 176.1 470.68 176.1C468.007 176.1 465.84 178.267 465.84 180.94C465.84 183.613 468.007 185.78 470.68 185.78Z" stroke="#263238" stroke-miterlimit="10"/>
<path d="M328.73 57.07C331.403 57.07 333.57 54.9031 333.57 52.23C333.57 49.557 331.403 47.39 328.73 47.39C326.057 47.39 323.89 49.557 323.89 52.23C323.89 54.9031 326.057 57.07 328.73 57.07Z" stroke="#263238" stroke-miterlimit="10"/>
<path d="M114.05 62.4201C116.723 62.4201 118.89 60.2532 118.89 57.5801C118.89 54.9071 116.723 52.7401 114.05 52.7401C111.377 52.7401 109.21 54.9071 109.21 57.5801C109.21 60.2532 111.377 62.4201 114.05 62.4201Z" stroke="#263238" stroke-miterlimit="10"/>
<path d="M42.44 408.36C42.44 407.403 42.1562 406.467 41.6243 405.671C41.0925 404.875 40.3366 404.255 39.4522 403.888C38.5678 403.522 37.5946 403.426 36.6558 403.613C35.7169 403.8 34.8545 404.261 34.1776 404.938C33.5007 405.614 33.0398 406.477 32.853 407.416C32.6663 408.355 32.7621 409.328 33.1284 410.212C33.4948 411.097 34.1151 411.852 34.9111 412.384C35.707 412.916 36.6427 413.2 37.6 413.2C38.8837 413.2 40.1147 412.69 41.0224 411.782C41.9301 410.875 42.44 409.644 42.44 408.36Z" stroke="#263238" stroke-miterlimit="10"/>
<path d="M400 24.6C400 24.6 404.95 16.11 413.19 17.06C421.43 18.01 424.03 23.89 426.39 30.06C428.75 36.23 424.98 41.6 423.8 44.9C422.62 48.2 422.85 49.38 424.74 49.9C425.309 50.0293 425.899 50.0328 426.469 49.9102C427.039 49.7875 427.575 49.5417 428.04 49.19C428.04 49.19 424.04 53.91 420.73 54.85C417.42 55.79 412.25 58.15 409.66 54.14C407.07 50.13 406.12 43.77 404 36.94C402.906 33.1359 401.218 29.5283 399 26.25L400 24.6Z" fill="#263238" stroke="#263238" stroke-linecap="round" stroke-linejoin="round"/>
<path d="M415.26 52.4C416.689 52.8118 417.966 53.6356 418.93 54.7685C419.894 55.9014 420.502 57.2932 420.68 58.77C421.63 64.19 422.1 83.27 422.1 83.27C422.1 83.27 427.75 91.76 433.41 99.53C439.07 107.3 440.01 106.6 440.01 106.6H450.38C450.38 106.6 456.97 110.84 457.44 111.6C457.91 112.36 457.68 112.78 456.27 112.78C454.86 112.78 452.02 112.31 450.38 112.31C448.715 112.421 447.061 112.655 445.43 113.01C445.43 113.01 451.55 114.01 451.55 115.13C451.55 116.25 450.85 116.13 449.2 116.31C447.55 116.49 444.96 117.02 443.54 116.55C442.12 116.08 437.65 109.95 437.65 109.95C437.65 109.95 421.16 97.46 418.09 94.16C415.02 90.86 412.91 88.04 412.44 85.91C412.089 83.9621 411.852 81.9955 411.73 80.02C411.73 80.02 412.44 71.3 410.08 65.41C407.72 59.52 404.9 54.1 407.49 51.51C410.08 48.92 415.26 52.4 415.26 52.4Z" fill="white" stroke="#263238" stroke-linecap="round" stroke-linejoin="round"/>
<path d="M420.68 58.77C420.502 57.2932 419.894 55.9014 418.93 54.7685C417.966 53.6357 416.689 52.8119 415.26 52.4C415.26 52.4 410.08 48.87 407.49 51.46C404.9 54.05 407.72 59.46 410.08 65.36C412.44 71.26 411.73 80 411.73 80C415.465 79.9141 419.053 78.5238 421.87 76.07C421.64 70.1 421.25 62 420.68 58.77Z" fill="#005D69" stroke="#263238" stroke-linecap="round" stroke-linejoin="round"/>
<path d="M301.21 178.24C301.21 178.24 292.73 182.48 288.72 187.19C284.71 191.9 284 195.67 285 197.56C286 199.45 290.66 200.15 293.25 198.27C295.84 196.39 297.96 190.96 299.61 189.55C301.26 188.14 304.09 182.24 304.8 180.36C305.51 178.48 301.21 178.24 301.21 178.24Z" fill="#005D69" stroke="#263238" stroke-linecap="round" stroke-linejoin="round"/>
<path d="M416.44 215.94C418.425 218.706 420.72 221.235 423.28 223.48C426.58 226.07 428.46 231.48 427.52 233.38C426.58 235.28 421.16 236.44 417.62 233.85C414.08 231.26 414.32 225.85 412.44 223.72C410.56 221.59 408.44 221.6 408.67 218.53C408.795 216.727 409.274 214.967 410.08 213.35C410.812 214.31 411.788 215.057 412.907 215.513C414.025 215.968 415.245 216.116 416.44 215.94Z" fill="#005D69" stroke="#263238" stroke-linecap="round" stroke-linejoin="round"/>
<path d="M413.69 51.14C412.53 50.6464 411.319 50.2809 410.08 50.05C405.6 49.1 396.41 49.81 392.41 50.52C388.41 51.23 382.27 53.11 382.27 53.11C382.27 53.11 363.66 62.77 362 67C360.34 71.23 363.65 89.15 364.83 94.81C365.38 97.0563 365.771 99.3386 366 101.64C366 101.64 358.23 110.83 356.34 114.37C354.45 117.91 346.92 130.86 343.85 138.64C340.78 146.42 338.91 153.48 338.2 154.64C337.49 155.8 332.31 155.11 327.83 155.82C322.517 156.557 317.57 158.946 313.69 162.65C308.444 168.366 303.491 174.344 298.85 180.56C298.14 181.74 300.26 183.39 301.91 183.16C303.56 182.93 321 175.38 327.36 172.32C333.72 169.26 343.62 168.07 348.8 164.32C353.98 160.57 370.72 140.52 373.55 138.17C374.563 137.193 375.806 136.487 377.164 136.117C378.522 135.746 379.951 135.723 381.32 136.05C384.15 136.52 392.16 143.12 396.4 149.05C400.64 154.98 408.66 170.25 408.66 170.25C408.66 170.25 406.3 177.09 406.77 181.8C407.24 186.51 408.42 200.42 408.66 204.66C408.9 208.9 410.07 216.21 411.01 217.66C411.95 219.11 415.49 219.78 416.43 217.66C417.37 215.54 417.61 198.57 419.02 194.57C420.43 190.57 423.74 173.57 423.74 168.88C423.74 164.19 420.91 144.61 420.91 143.88C418.963 135.91 416.603 128.046 413.84 120.32C411.411 113.976 408.657 107.761 405.59 101.7L403.47 96.99C403.47 96.99 411.25 86.62 412.19 84.74C412.728 83.6972 413.125 82.5875 413.37 81.44C413.37 81.44 413.18 72.72 413.99 69.44" fill="white"/>
<path d="M413.69 51.14C412.53 50.6464 411.319 50.2809 410.08 50.05C405.6 49.1 396.41 49.81 392.41 50.52C388.41 51.23 382.27 53.11 382.27 53.11C382.27 53.11 363.66 62.77 362 67C360.34 71.23 363.65 89.15 364.83 94.81C365.38 97.0563 365.771 99.3386 366 101.64C366 101.64 358.23 110.83 356.34 114.37C354.45 117.91 346.92 130.86 343.85 138.64C340.78 146.42 338.91 153.48 338.2 154.64C337.49 155.8 332.31 155.11 327.83 155.82C322.517 156.557 317.57 158.946 313.69 162.65C308.444 168.366 303.491 174.344 298.85 180.56C298.14 181.74 300.26 183.39 301.91 183.16C303.56 182.93 321 175.38 327.36 172.32C333.72 169.26 343.62 168.07 348.8 164.32C353.98 160.57 370.72 140.52 373.55 138.17C374.563 137.193 375.806 136.487 377.164 136.117C378.522 135.746 379.951 135.723 381.32 136.05C384.15 136.52 392.16 143.12 396.4 149.05C400.64 154.98 408.66 170.25 408.66 170.25C408.66 170.25 406.3 177.09 406.77 181.8C407.24 186.51 408.42 200.42 408.66 204.66C408.9 208.9 410.07 216.21 411.01 217.66C411.95 219.11 415.49 219.78 416.43 217.66C417.37 215.54 417.61 198.57 419.02 194.57C420.43 190.57 423.74 173.57 423.74 168.88C423.74 164.19 420.91 144.61 420.91 143.88C418.963 135.91 416.603 128.046 413.84 120.32C411.411 113.976 408.657 107.761 405.59 101.7L403.47 96.99C403.47 96.99 411.25 86.62 412.19 84.74C412.728 83.6972 413.125 82.5875 413.37 81.44C413.37 81.44 413.18 72.72 413.99 69.44" stroke="#263238" stroke-linecap="round" stroke-linejoin="round"/>
<path d="M413.85 120.27C411.493 114.118 408.823 108.09 405.85 102.21C403.74 104.21 397.36 108.34 381.3 107.07C375.393 106.703 369.536 105.766 363.81 104.27C361.37 107.27 357.57 112.05 356.32 114.38C354.99 116.88 350.81 124.12 347.4 130.9C351.446 138.189 358.086 143.69 366 146.31C369.55 142.31 372.49 139.05 373.54 138.18C374.553 137.203 375.796 136.497 377.154 136.127C378.512 135.756 379.941 135.733 381.31 136.06C383.19 136.37 387.36 139.39 391.19 143.11C393.04 139.66 397.77 132.4 406.05 129.22C409.239 127.892 412.611 127.053 416.05 126.73C415.33 124.46 414.58 122.24 413.85 120.27Z" fill="#263238" stroke="#263238" stroke-linecap="round" stroke-linejoin="round"/>
<path d="M416.71 53.54C415.26 51.54 413.1 50.68 410.08 50.05C405.6 49.1 396.41 49.81 392.41 50.52C388.41 51.23 382.27 53.11 382.27 53.11C382.27 53.11 363.66 62.77 362 67C360.34 71.23 363.65 89.15 364.83 94.81C365.38 97.0563 365.771 99.3386 366 101.64C366 101.64 362.32 105.99 359.41 109.86C361.88 112.86 368.28 117.86 383.91 118.37C395.91 118.75 403.43 112.37 407.91 106.37C406.57 103.53 405.62 101.68 405.62 101.68L403.5 96.97C403.5 96.97 409.59 91.41 410.94 89.79C413.44 86.79 413.4 81.42 413.4 81.42C413.4 81.42 413.16 70.58 414.34 68.42" fill="#005D69"/>
<path d="M416.71 53.54C415.26 51.54 413.1 50.68 410.08 50.05C405.6 49.1 396.41 49.81 392.41 50.52C388.41 51.23 382.27 53.11 382.27 53.11C382.27 53.11 363.66 62.77 362 67C360.34 71.23 363.65 89.15 364.83 94.81C365.38 97.0563 365.771 99.3386 366 101.64C366 101.64 362.32 105.99 359.41 109.86C361.88 112.86 368.28 117.86 383.91 118.37C395.91 118.75 403.43 112.37 407.91 106.37C406.57 103.53 405.62 101.68 405.62 101.68L403.5 96.97C403.5 96.97 409.59 91.41 410.94 89.79C413.44 86.79 413.4 81.42 413.4 81.42C413.4 81.42 413.16 70.58 414.34 68.42" stroke="#263238" stroke-linecap="round" stroke-linejoin="round"/>
<path d="M380.86 57.12C379.524 59.6463 379.03 62.5333 379.45 65.36C380.15 70.08 383.45 78.56 383.45 78.56C383.45 78.56 389.81 73.14 391.7 71.49C393.033 70.3637 394.451 69.3407 395.94 68.43L406.78 70.55C406.78 70.55 405.13 63.24 403.25 59.47C401.37 55.7 393.59 52.4 389.81 52.4C386.03 52.4 380.86 57.12 380.86 57.12Z" fill="#263238" stroke="#263238" stroke-linecap="round" stroke-linejoin="round"/>
<path d="M391 69.84C391 69.84 392.89 73.38 394.3 76.2C394.963 77.6028 395.753 78.9418 396.66 80.2C396.66 80.2 398.78 68.2 398.78 66.3V64.42L391 69.84Z" fill="white" stroke="#263238" stroke-linecap="round" stroke-linejoin="round"/>
<path d="M379.21 49.81C379.21 49.81 379.92 59.47 380.86 61.59C381.8 63.71 387.22 69.84 388.86 70.59C389.64 70.8936 390.487 70.9878 391.315 70.8633C392.143 70.7387 392.924 70.3998 393.58 69.88C394.75 68.94 399.7 64.23 401.35 62.34C403 60.45 403.71 55.74 403.71 55.74C403.71 55.74 406.77 54.56 407.71 52.44C408.65 50.32 411.12 46.1 408.12 44.56C405.12 43.02 403.24 43.96 403.24 43.96C403.24 43.96 405.59 39.72 401.82 38.78C398.05 37.84 384.16 39 381.33 43C378.5 47 379.21 49.81 379.21 49.81Z" fill="white" stroke="#263238" stroke-linecap="round" stroke-linejoin="round"/>
<path d="M388.64 55.7C388.64 55.7 387.46 60.4099 387.46 61.1199C387.46 61.8299 389.34 63.95 390.76 62.06" stroke="#263238" stroke-linecap="round" stroke-linejoin="round"/>
<path d="M389.58 64.42C390.524 64.7356 391.539 64.7694 392.501 64.5172C393.464 64.265 394.332 63.7378 395 63" stroke="#263238" stroke-linecap="round" stroke-linejoin="round"/>
<path d="M395.94 55.94C395.94 56.72 395.57 57.35 395.12 57.35C394.67 57.35 394.29 56.72 394.29 55.94C394.29 55.16 394.66 54.52 395.12 54.52C395.58 54.52 395.94 55.16 395.94 55.94Z" fill="#263238"/>
<path d="M385.46 54.76C385.46 55.54 385.09 56.17 384.63 56.17C384.17 56.17 383.81 55.54 383.81 54.76C383.81 53.98 384.18 53.35 384.63 53.35C385.08 53.35 385.46 54 385.46 54.76Z" fill="#263238"/>
<path d="M378 37.0001C377.375 39.3459 377.012 41.7541 376.92 44.1801C377.039 46.4425 377.654 48.6512 378.72 50.6501C378.72 50.6501 386.62 53.5201 391.65 53.5201C394.585 53.5423 397.502 53.0551 400.27 52.0801L401.35 44.9001L402.78 48.4901C403.354 47.3291 404.223 46.3394 405.3 45.6201C406.219 45.1671 407.18 44.8054 408.17 44.5401C408.17 44.5401 409.61 34.4801 406.38 28.3701C403.15 22.2601 392.38 20.1101 384.46 24.3701C382.22 25.5606 380.399 27.4103 379.244 29.669C378.088 31.9277 377.654 34.4867 378 37.0001Z" fill="#263238" stroke="#263238" stroke-linecap="round" stroke-linejoin="round"/>
<path d="M367.66 62.3C367.66 62.3 360.6 64.6601 357.3 70.0801C354 75.5001 348.3 89.4001 347.63 91.0801C346.96 92.7601 339.86 112.52 339.86 112.52C339.86 112.52 349.52 121.01 355.41 125.95C361.3 130.89 371.67 137.95 371.67 137.95C371.67 137.95 371.2 145.73 371.91 146.95C372.744 148.012 373.785 148.893 374.97 149.54C375.68 150.01 378.5 149.54 378.5 149.54C378.5 149.54 380.15 151.66 380.62 150.48C381.09 149.3 382.04 143.18 380.86 140.58C379.68 137.98 374.73 133.75 374.73 133.75L354 109.19L367.66 85.39" fill="#005D69"/>
<path d="M367.66 62.3C367.66 62.3 360.6 64.6601 357.3 70.0801C354 75.5001 348.3 89.4001 347.63 91.0801C346.96 92.7601 339.86 112.52 339.86 112.52C339.86 112.52 349.52 121.01 355.41 125.95C361.3 130.89 371.67 137.95 371.67 137.95C371.67 137.95 371.2 145.73 371.91 146.95C372.744 148.012 373.785 148.893 374.97 149.54C375.68 150.01 378.5 149.54 378.5 149.54C378.5 149.54 380.15 151.66 380.62 150.48C381.09 149.3 382.04 143.18 380.86 140.58C379.68 137.98 374.73 133.75 374.73 133.75L354 109.19L367.66 85.39" stroke="#263238" stroke-linecap="round" stroke-linejoin="round"/>
<path d="M371.91 146.9C372.744 147.962 373.785 148.843 374.97 149.49C375.68 149.96 378.5 149.49 378.5 149.49C378.5 149.49 380.15 151.61 380.62 150.43C381.09 149.25 382.04 143.13 380.86 140.53C379.68 137.93 374.73 133.7 374.73 133.7L354 109.19L360.8 97.34C355.972 96.1798 351.549 93.7331 348 90.26C347.85 90.62 347.73 90.89 347.66 91.05C346.96 92.7 339.89 112.49 339.89 112.49C339.89 112.49 349.55 120.98 355.44 125.92C361.33 130.86 371.7 137.92 371.7 137.92C371.7 137.92 371.2 145.72 371.91 146.9Z" fill="white" stroke="#263238" stroke-linecap="round" stroke-linejoin="round"/>
<path d="M403.48 96.9401C403.48 96.9401 397.56 103.1 393.95 104.49" stroke="#263238" stroke-linecap="round" stroke-linejoin="round"/>
<path d="M397.04 164.427C400.827 162.14 401 155.488 397.426 149.569C393.853 143.649 387.886 140.704 384.098 142.99C380.311 145.277 380.138 151.929 383.712 157.848C387.286 163.768 393.253 166.713 397.04 164.427Z" fill="#005D69" stroke="#263238" stroke-linecap="round" stroke-linejoin="round"/>
<path d="M385.5 142.42C381.58 143.42 380.01 148.42 382.01 154.23C382.551 155.802 383.297 157.295 384.23 158.67L385.5 142.42Z" fill="white" stroke="#263238" stroke-linecap="round" stroke-linejoin="round"/>
<path d="M454.4 210.2L450.07 213.41V296.66L454.4 293.45V210.2Z" fill="#263238" stroke="#263238" stroke-linecap="round" stroke-linejoin="round"/>
<path d="M445.74 210.31V293.56L449.93 296.72V213.47L445.74 210.31Z" fill="white" stroke="#263238" stroke-linecap="round" stroke-linejoin="round"/>
<path d="M370.85 307.16V312.43L449.65 250.8V245.52L370.85 307.16Z" fill="#263238" stroke="#263238" stroke-linecap="round" stroke-linejoin="round"/>
<path d="M445.72 243.61L370.85 302.15V306.98L449.65 245.35V244.94L445.72 243.61Z" fill="white" stroke="#263238" stroke-linecap="round" stroke-linejoin="round"/>
<path d="M329.4 307.7L325.07 310.91V394.16L329.4 390.95V307.7Z" fill="#263238" stroke="#263238" stroke-linecap="round" stroke-linejoin="round"/>
<path d="M320.74 307.81V391.06L324.93 394.22V310.96L320.74 307.81Z" fill="white" stroke="#263238" stroke-linecap="round" stroke-linejoin="round"/>
<path d="M226.51 416.72V422L324.65 346.76V341.47L226.51 416.72Z" fill="#263238" stroke="#263238" stroke-linecap="round" stroke-linejoin="round"/>
<path d="M320.72 339.56L226.51 411.7V416.55L324.65 341.3V340.89L320.72 339.56Z" fill="white" stroke="#263238" stroke-linecap="round" stroke-linejoin="round"/>
<path d="M372.9 271.2L368.57 274.41V357.66L372.9 354.45V271.2Z" fill="#263238" stroke="#263238" stroke-linecap="round" stroke-linejoin="round"/>
<path d="M364.24 271.31V354.56L368.43 357.72V274.46L364.24 271.31Z" fill="white" stroke="#263238" stroke-linecap="round" stroke-linejoin="round"/>
<path d="M226.9 379.2L222.57 382.41V465.66L226.9 462.45V379.2Z" fill="#263238" stroke="#263238" stroke-linecap="round" stroke-linejoin="round"/>
<path d="M218.24 379.31V462.56L222.43 465.72V382.46L218.24 379.31Z" fill="white" stroke="#263238" stroke-linecap="round" stroke-linejoin="round"/>
<path d="M76.95 269.37L72.62 272.58V355.83L76.95 352.62V269.37Z" fill="#263238" stroke="#263238" stroke-linecap="round" stroke-linejoin="round"/>
<path d="M68.29 269.48V352.73L72.48 355.88V272.63L68.29 269.48Z" fill="white" stroke="#263238" stroke-linecap="round" stroke-linejoin="round"/>
<path d="M291.57 116.22L458.57 204.22L222.57 379.22L64.57 260.22L291.57 116.22Z" fill="white" stroke="#263238" stroke-linecap="round" stroke-linejoin="round"/>
<path d="M355.33 156.54L290.2 122.22L73.56 259.65L145.02 313.47L355.33 156.54Z" fill="#005D69" stroke="#263238" stroke-miterlimit="10" stroke-linecap="round"/>
<path d="M360.23 159.12L149.19 316.61L222.49 373.22L447.72 206.2L360.23 159.12Z" fill="#005D69" stroke="#263238" stroke-miterlimit="10" stroke-linecap="round"/>
<path d="M343.86 263.38L179.78 163.12V186.91L343.86 290.44V263.38Z" stroke="#263238" stroke-miterlimit="10" stroke-linecap="round"/>
<path d="M343.86 289.66V263.37" stroke="#263238" stroke-width="3" stroke-miterlimit="10" stroke-linecap="round"/>
<path d="M179.78 163.12V186.91" stroke="#263238" stroke-width="3" stroke-miterlimit="10" stroke-linecap="round"/>
<path d="M180.65 167.65L342.63 267.94" stroke="#263238" stroke-miterlimit="10" stroke-linecap="round"/>
<path d="M180.65 172.82L342.63 273.11" stroke="#263238" stroke-miterlimit="10" stroke-linecap="round"/>
<path d="M180.65 177.99L342.63 278.28" stroke="#263238" stroke-miterlimit="10" stroke-linecap="round"/>
<path d="M180.65 183.17L342.63 283.46" stroke="#263238" stroke-miterlimit="10" stroke-linecap="round"/>
<path d="M183.84 166.05V189.53" stroke="#263238" stroke-miterlimit="10" stroke-linecap="round"/>
<path d="M186.89 167.91V191.46" stroke="#263238" stroke-miterlimit="10" stroke-linecap="round"/>
<path d="M189.94 169.77V193.39" stroke="#263238" stroke-miterlimit="10" stroke-linecap="round"/>
<path d="M192.99 171.63V195.32" stroke="#263238" stroke-miterlimit="10" stroke-linecap="round"/>
<path d="M196.04 173.48V197.24" stroke="#263238" stroke-miterlimit="10" stroke-linecap="round"/>
<path d="M199.09 175.34V199.17" stroke="#263238" stroke-miterlimit="10" stroke-linecap="round"/>
<path d="M202.14 177.2V201.1" stroke="#263238" stroke-miterlimit="10" stroke-linecap="round"/>
<path d="M205.19 179.05V203.03" stroke="#263238" stroke-miterlimit="10" stroke-linecap="round"/>
<path d="M208.25 180.91V204.95" stroke="#263238" stroke-miterlimit="10" stroke-linecap="round"/>
<path d="M211.3 182.77V206.88" stroke="#263238" stroke-miterlimit="10" stroke-linecap="round"/>
<path d="M214.35 184.63V208.81" stroke="#263238" stroke-miterlimit="10" stroke-linecap="round"/>
<path d="M217.4 186.48V210.74" stroke="#263238" stroke-miterlimit="10" stroke-linecap="round"/>
<path d="M220.45 188.34V212.66" stroke="#263238" stroke-miterlimit="10" stroke-linecap="round"/>
<path d="M223.5 190.2V214.59" stroke="#263238" stroke-miterlimit="10" stroke-linecap="round"/>
<path d="M226.55 192.05V216.52" stroke="#263238" stroke-miterlimit="10" stroke-linecap="round"/>
<path d="M229.6 193.91V218.45" stroke="#263238" stroke-miterlimit="10" stroke-linecap="round"/>
<path d="M232.65 195.77V220.37" stroke="#263238" stroke-miterlimit="10" stroke-linecap="round"/>
<path d="M235.71 197.63V222.3" stroke="#263238" stroke-miterlimit="10" stroke-linecap="round"/>
<path d="M238.76 199.48V224.23" stroke="#263238" stroke-miterlimit="10" stroke-linecap="round"/>
<path d="M241.81 201.34V226.16" stroke="#263238" stroke-miterlimit="10" stroke-linecap="round"/>
<path d="M244.86 203.2V228.08" stroke="#263238" stroke-miterlimit="10" stroke-linecap="round"/>
<path d="M247.91 205.06V230.01" stroke="#263238" stroke-miterlimit="10" stroke-linecap="round"/>
<path d="M250.96 206.91V231.94" stroke="#263238" stroke-miterlimit="10" stroke-linecap="round"/>
<path d="M254.01 208.77V233.87" stroke="#263238" stroke-miterlimit="10" stroke-linecap="round"/>
<path d="M257.06 210.63V235.79" stroke="#263238" stroke-miterlimit="10" stroke-linecap="round"/>
<path d="M260.12 212.48V237.72" stroke="#263238" stroke-miterlimit="10" stroke-linecap="round"/>
<path d="M263.17 214.34V239.65" stroke="#263238" stroke-miterlimit="10" stroke-linecap="round"/>
<path d="M266.22 216.2V241.58" stroke="#263238" stroke-miterlimit="10" stroke-linecap="round"/>
<path d="M269.27 218.06V243.5" stroke="#263238" stroke-miterlimit="10" stroke-linecap="round"/>
<path d="M272.32 219.91V245.43" stroke="#263238" stroke-miterlimit="10" stroke-linecap="round"/>
<path d="M275.37 221.77V247.36" stroke="#263238" stroke-miterlimit="10" stroke-linecap="round"/>
<path d="M278.42 223.63V249.29" stroke="#263238" stroke-miterlimit="10" stroke-linecap="round"/>
<path d="M281.47 225.48V251.21" stroke="#263238" stroke-miterlimit="10" stroke-linecap="round"/>
<path d="M284.52 227.34V253.14" stroke="#263238" stroke-miterlimit="10" stroke-linecap="round"/>
<path d="M287.58 229.2V255.07" stroke="#263238" stroke-miterlimit="10" stroke-linecap="round"/>
<path d="M290.63 231.06V257" stroke="#263238" stroke-miterlimit="10" stroke-linecap="round"/>
<path d="M293.68 232.91V258.92" stroke="#263238" stroke-miterlimit="10" stroke-linecap="round"/>
<path d="M296.73 234.77V260.85" stroke="#263238" stroke-miterlimit="10" stroke-linecap="round"/>
<path d="M299.78 236.63V262.78" stroke="#263238" stroke-miterlimit="10" stroke-linecap="round"/>
<path d="M302.83 238.49V264.71" stroke="#263238" stroke-miterlimit="10" stroke-linecap="round"/>
<path d="M305.88 240.34V266.63" stroke="#263238" stroke-miterlimit="10" stroke-linecap="round"/>
<path d="M308.93 242.2V268.56" stroke="#263238" stroke-miterlimit="10" stroke-linecap="round"/>
<path d="M311.99 244.06V270.49" stroke="#263238" stroke-miterlimit="10" stroke-linecap="round"/>
<path d="M315.04 245.91V272.42" stroke="#263238" stroke-miterlimit="10" stroke-linecap="round"/>
<path d="M318.09 247.77V274.34" stroke="#263238" stroke-miterlimit="10" stroke-linecap="round"/>
<path d="M321.14 249.63V276.27" stroke="#263238" stroke-miterlimit="10" stroke-linecap="round"/>
<path d="M324.19 251.49V278.2" stroke="#263238" stroke-miterlimit="10" stroke-linecap="round"/>
<path d="M327.24 253.34V280.12" stroke="#263238" stroke-miterlimit="10" stroke-linecap="round"/>
<path d="M330.29 255.2V282.05" stroke="#263238" stroke-miterlimit="10" stroke-linecap="round"/>
<path d="M333.34 257.06V283.98" stroke="#263238" stroke-miterlimit="10" stroke-linecap="round"/>
<path d="M336.39 258.92V285.91" stroke="#263238" stroke-miterlimit="10" stroke-linecap="round"/>
<path d="M339.45 260.77V287.83" stroke="#263238" stroke-miterlimit="10" stroke-linecap="round"/>
<path d="M458.71 218.13L222.57 393.05V379.22L458.71 204.29V218.13Z" fill="#263238" stroke="#263238" stroke-linecap="round" stroke-linejoin="round"/>
<path d="M64.56 274.15L222.34 393.13V379.3L64.56 260.32V274.15Z" fill="white" stroke="#263238" stroke-linecap="round" stroke-linejoin="round"/>
<path d="M247.26 131.78C247.26 132.557 247.03 133.317 246.598 133.963C246.166 134.61 245.552 135.113 244.834 135.411C244.116 135.708 243.326 135.786 242.563 135.634C241.801 135.483 241.101 135.109 240.551 134.559C240.001 134.009 239.627 133.309 239.476 132.547C239.324 131.784 239.402 130.994 239.699 130.276C239.997 129.558 240.5 128.944 241.147 128.512C241.793 128.08 242.553 127.85 243.33 127.85C243.846 127.85 244.357 127.952 244.834 128.149C245.311 128.347 245.744 128.636 246.109 129.001C246.474 129.366 246.763 129.799 246.961 130.276C247.158 130.753 247.26 131.264 247.26 131.78Z" fill="white" stroke="#263238" stroke-linecap="round" stroke-linejoin="round"/>
<path d="M155.48 231.78L145.87 219.84C145.87 219.84 139.17 215.77 137.72 215.19C136.27 214.61 136 211.4 136 210.24C136 209.08 136.87 203.54 138 202.96C139.13 202.38 140.91 203.25 143.24 204.41C145.57 205.57 148.48 213.41 148.48 214.31C148.48 215.21 160.71 224.21 170.9 230.04C181.09 235.87 185.75 242.56 185.75 246.04C185.75 249.52 184.59 250.7 181.97 251.57C179.35 252.44 146.73 250.99 146.73 250.99L150.23 232.94L155.48 231.78Z" fill="white" stroke="#263238" stroke-linecap="round" stroke-linejoin="round"/>
<path d="M176.59 238.19C177.728 238.511 178.847 238.898 179.94 239.35" stroke="#263238" stroke-linecap="round" stroke-linejoin="round"/>
<path d="M154 233C154 233 165.17 235.2 173.17 237.29" stroke="#263238" stroke-linecap="round" stroke-linejoin="round"/>
<path d="M78.31 269.35L76.56 281.29L55.31 270.51C56.2407 268.836 57.0204 267.082 57.64 265.27C57.93 263.81 56.18 261.49 55.31 260.61C54.44 259.73 52.1 259.16 52.1 260.32V261.49L47.74 259.74C46.28 259.16 43.66 260.61 44.53 262.65C45.4 264.69 44.53 265.85 44.53 268.18C44.53 270.51 44.53 271.68 46.53 273.42C48.4076 274.775 50.4682 275.855 52.65 276.63C52.65 276.63 67.79 292.06 72.16 295.55C76.53 299.04 80.35 302 83 299.92C85.65 297.84 91.71 274 91.71 274L78.31 269.35Z" fill="white" stroke="#263238" stroke-linecap="round" stroke-linejoin="round"/>
<path d="M76.56 281.29L75.98 290.02" stroke="#263238" stroke-linecap="round" stroke-linejoin="round"/>
<path d="M72.78 430.67C72.78 430.67 72.6 431.02 72.32 431.61C71.44 433.41 69.51 437.42 68.41 440.28C68.102 441.043 68.0002 441.874 68.1148 442.689C68.2295 443.504 68.5566 444.274 69.0633 444.923C69.5699 445.571 70.2383 446.075 71.0013 446.383C71.7643 446.692 72.595 446.794 73.41 446.68C76.61 446.39 77.49 440.57 80.11 438.24C82.73 435.91 84.48 436.24 85.35 432.12C86.22 428 84.48 424.26 79.53 425.72C76.7156 426.416 74.2898 428.195 72.78 430.67Z" fill="#263238" stroke="#263238" stroke-linecap="round" stroke-linejoin="round"/>
<path d="M128.69 456C128.69 456 122.86 471.72 123.69 472.31C124.52 472.9 134.46 475.22 137.96 475.8C141.46 476.38 149.6 477.55 151.35 475.8C153.1 474.05 146.11 470.27 142.62 467.36C139.13 464.45 135.04 457.75 135.04 457.75L128.69 456Z" fill="#263238" stroke="#263238" stroke-linecap="round" stroke-linejoin="round"/>
<path d="M102.19 237.61C102.19 237.61 81.52 246.93 81.19 248.38C80.86 249.83 76.19 271.09 76.19 271.09L92.19 277.21C92.19 277.21 97.43 288.27 98.01 290.6C98.59 292.93 94.52 297.88 93.65 301.67C92.78 305.46 86.65 315.06 86.37 329.04C86.09 343.02 92.77 378.25 92.77 378.25C92.77 378.25 91.02 378.54 87.77 383.49C84.52 388.44 82.53 392.81 80.2 401.26C77.87 409.71 70.88 434.45 71.2 435.33C71.52 436.21 72.66 437.95 75.28 436.49C77.9 435.03 94 408.25 99.57 399.8C105.14 391.35 109.76 381.16 110.34 377.96C110.92 374.76 115.58 350.88 115.58 350.88L121.41 354.37C121.41 354.37 136.84 398.93 137.41 400.09C137.98 401.25 132.46 412.03 131.88 417.56C131.3 423.09 128.1 457.75 127.8 459.79C127.5 461.83 128.68 463.86 130.13 463.86C131.487 463.898 132.819 463.491 133.924 462.702C135.028 461.914 135.845 460.786 136.25 459.49C137.41 455.71 152.56 419.6 154.3 411.49C156.04 403.38 156.05 393.73 156.3 391.98C156.55 390.23 156.59 348.88 152.81 334.91C149.03 320.94 146.11 306.66 146.11 306.66C146.11 306.66 147.27 289.77 145.24 277.25C143.21 264.73 142.37 253 142.37 253L150.24 252.13L155.48 231.74C155.48 231.74 145.29 228.25 137.72 228.54C130.15 228.83 116.17 233.2 114.13 233.78C112.09 234.36 102.19 237.61 102.19 237.61Z" fill="white" stroke="#263238" stroke-linecap="round" stroke-linejoin="round"/>
<path d="M152.86 334.87C150.54 326.33 148.56 317.69 147.36 312.25C141.1 314.78 128.71 318.57 111.8 317.98C98.11 317.5 92.17 314.76 89.6 312.37C87.6771 317.711 86.6204 323.325 86.47 329C86.33 335.45 87.68 346.41 89.18 356.35C99.27 362.75 109.7 360.23 114.06 358.69C114.92 354.26 115.58 350.84 115.58 350.84L121.41 354.33C121.41 354.33 123.77 361.15 126.68 369.52C137.54 377.61 149.9 373.66 156.22 370.65C155.83 357.77 154.89 342.37 152.86 334.87Z" fill="#263238" stroke="#263238" stroke-linecap="round" stroke-linejoin="round"/>
<path d="M147.32 211.4L145.58 203.83L138.58 201.83L138 210.28C138.623 210.246 139.225 210.042 139.74 209.69C140.62 209.11 140.91 207.36 140.91 207.36C140.91 207.36 141.2 212.36 143.53 214.06" fill="white"/>
<path d="M147.32 211.4L145.58 203.83L138.58 201.83L138 210.28C138.623 210.246 139.225 210.042 139.74 209.69C140.62 209.11 140.91 207.36 140.91 207.36C140.91 207.36 141.2 212.36 143.53 214.06" stroke="#263238" stroke-linecap="round" stroke-linejoin="round"/>
<path d="M144.85 203.25C152.328 203.25 158.39 196.078 158.39 187.23C158.39 178.382 152.328 171.21 144.85 171.21C137.372 171.21 131.31 178.382 131.31 187.23C131.31 196.078 137.372 203.25 144.85 203.25Z" fill="#005D69" stroke="#263238" stroke-linecap="round" stroke-linejoin="round"/>
<path d="M132.32 193.29C134.32 199.13 139.18 203.29 144.85 203.29C146.66 203.289 148.444 202.864 150.06 202.05L132.32 193.29Z" fill="white" stroke="#263238" stroke-linecap="round" stroke-linejoin="round"/>
<path d="M137.72 228.58C130.14 228.87 116.17 233.24 114.13 233.82C112.09 234.4 102.19 237.61 102.19 237.61C102.19 237.61 81.52 246.93 81.19 248.38C80.86 249.83 76.19 271.09 76.19 271.09L92.19 277.21C92.19 277.21 97.43 288.27 98.01 290.6C98.59 292.93 94.52 297.88 93.65 301.67C93.12 303.93 90.74 308.28 88.83 314.38C92.22 318.38 100 324.84 115.19 325.84C128.67 326.72 141.05 322.22 148.69 318.55C147.08 311.6 146.06 306.62 146.06 306.62C146.06 306.62 147.22 289.73 145.19 277.21C143.16 264.69 142.37 253 142.37 253L150.24 252.13L155.48 231.74C155.48 231.74 145.29 228.29 137.72 228.58Z" fill="#005D69" stroke="#263238" stroke-linecap="round" stroke-linejoin="round"/>
<path d="M142.37 253C142.37 253 140.04 260.86 137.37 264.94" stroke="#263238" stroke-linecap="round" stroke-linejoin="round"/>
<path d="M84.46 258.12L82.97 254.5" stroke="#263238" stroke-linecap="round" stroke-linejoin="round"/>
<path d="M92.29 277.21L85.94 261.74" stroke="#263238" stroke-linecap="round" stroke-linejoin="round"/>
<path d="M145 275.16C144.15 269.61 143.52 264.36 143.1 260.37C139.23 268.95 126.47 293.37 96.9 320.76C99.6253 322.275 102.527 323.447 105.54 324.25C125.92 304.82 138.14 287.07 145 275.16Z" fill="#263238"/>
<path d="M145.88 281.77C139.61 292.52 128.76 308.2 111.25 325.41C112.54 325.59 113.87 325.74 115.25 325.84C117.731 326.005 120.219 326.005 122.7 325.84C131.411 316.816 139.355 307.083 146.45 296.74C146.523 291.743 146.332 286.746 145.88 281.77Z" fill="#263238"/>
<path d="M122.86 184.9C122.86 184.9 110.05 179.66 101.61 179.66C93.17 179.66 84.43 189 84.43 189L89.09 187.83C89.09 187.83 81.81 193.37 80.09 197.73C78.8321 201.417 77.9542 205.224 77.47 209.09L80.96 207.63C80.96 207.63 79.51 215.79 80.96 221.9C82.41 228.01 87.66 234.42 87.66 234.42L89.41 230.93C89.41 230.93 95.23 237.93 97.27 239.93C99.31 241.93 105.13 244.59 105.13 244.59L114.45 238.18V242C114.45 241.12 118.53 237.92 125.52 230.64C132.51 223.36 135.12 208.22 134.25 199.48C133.38 190.74 122.86 184.9 122.86 184.9Z" fill="#263238" stroke="#263238" stroke-linecap="round" stroke-linejoin="round"/>
</svg>
